<?xml version="1.0" encoding="UTF-8"?>
<svg id="Camada_2" data-name="Camada 2" xmlns="http://www.w3.org/2000/svg" viewBox="0 0 40.39 40.39">
  <defs>
    <style>
      .cls-1 {
        fill: #7eccdf;
      }

      .cls-1, .cls-2 {
        stroke-width: 0px;
      }

      .cls-2 {
        fill: #fff;
      }
    </style>
  </defs>
  <g id="Camada_1-2" data-name="Camada 1">
    <g>
      <path class="cls-1" d="M40.39,20.2C40.39,9.04,31.35,0,20.2,0S0,9.04,0,20.2c0,10.08,7.39,18.44,17.04,19.95v-14.11h-5.13v-5.84h5.13v-4.45c0-5.06,3.02-7.86,7.63-7.86,2.21,0,4.52.39,4.52.39v4.97h-2.55c-2.51,0-3.29,1.56-3.29,3.15v3.79h5.6l-.9,5.84h-4.71v14.11c9.66-1.52,17.04-9.87,17.04-19.95Z"/>
      <path class="cls-2" d="M28.06,26.04l.9-5.84h-5.6v-3.79c0-1.6.78-3.15,3.29-3.15h2.55v-4.97s-2.31-.39-4.52-.39c-4.61,0-7.63,2.8-7.63,7.86v4.45h-5.13v5.84h5.13v14.11c1.03.16,2.08.25,3.16.25s2.13-.08,3.16-.25v-14.11h4.71Z"/>
    </g>
  </g>
</svg>