<?xml version="1.0" encoding="UTF-8"?>
<svg id="Camada_2" data-name="Camada 2" xmlns="http://www.w3.org/2000/svg" viewBox="0 0 37.98 37.98">
  <defs>
    <style>
      .cls-1 {
        fill: #78c9de;
      }

      .cls-1, .cls-2 {
        stroke-width: 0px;
      }

      .cls-2 {
        fill: #fff;
      }
    </style>
  </defs>
  <g id="Camada_1-2" data-name="Camada 1">
    <g>
      <circle class="cls-2" cx="18.99" cy="18.99" r="18.99"/>
      <g>
        <path class="cls-1" d="M24.88,11.81c-.72,0-1.31.58-1.31,1.31s.58,1.31,1.31,1.31,1.31-.58,1.31-1.31-.58-1.31-1.31-1.31Z"/>
        <path class="cls-1" d="M19.08,13.48c-3.02,0-5.48,2.46-5.48,5.48s2.46,5.48,5.48,5.48,5.48-2.46,5.48-5.48-2.46-5.48-5.48-5.48ZM19.08,22.48c-1.94,0-3.51-1.58-3.51-3.51s1.58-3.51,3.51-3.51,3.51,1.58,3.51,3.51-1.58,3.51-3.51,3.51Z"/>
        <path class="cls-1" d="M23.43,30.1h-8.89c-3.69,0-6.69-3-6.69-6.69v-8.89c0-3.69,3-6.69,6.69-6.69h8.89c3.69,0,6.69,3,6.69,6.69v8.89c0,3.69-3,6.69-6.69,6.69ZM14.55,9.93c-2.53,0-4.59,2.06-4.59,4.59v8.89c0,2.53,2.06,4.59,4.59,4.59h8.89c2.53,0,4.59-2.06,4.59-4.59v-8.89c0-2.53-2.06-4.59-4.59-4.59h-8.89Z"/>
      </g>
    </g>
  </g>
</svg>