<?xml version="1.0" encoding="UTF-8"?>
<svg id="Camada_2" data-name="Camada 2" xmlns="http://www.w3.org/2000/svg" viewBox="0 0 30.87 41.16">
  <defs>
    <style>
      .cls-1 {
        fill: none;
        stroke: #79cade;
        stroke-linecap: round;
        stroke-linejoin: round;
        stroke-width: 1.71px;
      }
    </style>
  </defs>
  <g id="Camada_1-2" data-name="Camada 1">
    <g>
      <path class="cls-1" d="M17.15,7.97c-.54-.16-1.12-.25-1.72-.25-3.31,0-6,2.69-6,6s2.69,6,6,6,6-2.69,6-6c0-.29-.02-.58-.06-.86"/>
      <path class="cls-1" d="M28.3,13.72C28.3,6.62,22.54.86,15.43.86S2.57,6.62,2.57,13.72c0,11.15,12.86,21.44,12.86,21.44,0,0,12.86-10.29,12.86-21.44Z"/>
      <path class="cls-1" d="M24.65,33.44c3.27.71,5.37,1.79,5.37,3,0,2.13-6.53,3.86-14.58,3.86s-14.58-1.73-14.58-3.86c0-1.21,2.09-2.29,5.37-3"/>
    </g>
  </g>
</svg>