<?xml version="1.0" encoding="UTF-8"?>
<svg id="Camada_2" data-name="Camada 2" xmlns="http://www.w3.org/2000/svg" viewBox="0 0 40.39 40.39">
  <defs>
    <style>
      .cls-1 {
        fill: #7eccdf;
      }

      .cls-1, .cls-2 {
        stroke-width: 0px;
      }

      .cls-2 {
        fill: #fff;
      }
    </style>
  </defs>
  <g id="Camada_1-2" data-name="Camada 1">
    <g>
      <circle class="cls-1" cx="20.2" cy="20.2" r="20.2"/>
      <path class="cls-2" d="M32.01,19.09v1.62c-.01.05-.04.1-.04.15-.1,1.36-.43,2.67-1.04,3.89-2.03,4.05-5.33,6.29-9.84,6.65-2.08.17-4.08-.28-5.94-1.23-.16-.08-.3-.1-.48-.04-1.45.47-2.9.92-4.36,1.39-.49.16-.98.33-1.47.5h-.28c-.2-.14-.21-.32-.13-.55.61-1.79,1.22-3.59,1.83-5.37.09-.26.07-.46-.06-.71-1.21-2.21-1.64-4.58-1.3-7.08.29-2.08,1.09-3.96,2.43-5.59,2.19-2.67,5.03-4.12,8.48-4.33,1.91-.12,3.76.22,5.48,1.06,3.66,1.78,5.87,4.67,6.58,8.69.06.32.09.63.14.95ZM12.03,28.43c.12-.03.2-.05.28-.07.87-.28,1.74-.54,2.61-.83.22-.07.39-.06.58.07,1.16.73,2.42,1.18,3.78,1.35,1.33.17,2.64.05,3.91-.36,1.58-.5,2.94-1.37,4.06-2.61,1.35-1.51,2.13-3.27,2.31-5.28.18-1.99-.26-3.85-1.33-5.54-1.6-2.53-3.92-3.96-6.88-4.31-1.73-.21-3.4.11-4.96.88-2.47,1.23-4.1,3.18-4.85,5.84-.37,1.32-.4,2.65-.16,3.99.23,1.26.71,2.43,1.45,3.47.18.26.22.48.1.77-.13.33-.23.67-.34,1-.18.53-.36,1.07-.55,1.63Z"/>
      <path class="cls-2" d="M26.13,23.02c0,1.64-1.3,2.47-2.51,2.63-.8.1-1.55-.12-2.3-.35-2.43-.73-4.21-2.31-5.66-4.32-.5-.69-.98-1.4-1.22-2.23-.27-.92-.23-1.81.16-2.69.33-.73.88-1.15,1.66-1.25.16-.02.32-.05.48-.07.38-.06.7.07.86.43.36.8.69,1.6,1.03,2.41.15.36-.05.66-.24.94-.16.24-.37.45-.55.68-.04.05-.06.17-.03.21.93,1.33,2.06,2.44,3.58,3.09.16.07.25.04.35-.09.25-.32.51-.63.77-.95.27-.33.52-.43.91-.26.82.37,1.63.76,2.43,1.16.27.13.31.4.3.67Z"/>
    </g>
  </g>
</svg>