<?xml version="1.0" encoding="UTF-8"?>
<svg id="Camada_2" data-name="Camada 2" xmlns="http://www.w3.org/2000/svg" viewBox="0 0 37.98 37.98">
  <defs>
    <style>
      .cls-1 {
        fill: #78c9de;
      }

      .cls-1, .cls-2 {
        stroke-width: 0px;
      }

      .cls-2 {
        fill: #fff;
      }
    </style>
  </defs>
  <g id="Camada_1-2" data-name="Camada 1">
    <g>
      <path class="cls-2" d="M37.98,18.99C37.98,8.5,29.48,0,18.99,0S0,8.5,0,18.99c0,9.48,6.94,17.33,16.02,18.76v-13.27h-4.82v-5.49h4.82v-4.18c0-4.76,2.83-7.39,7.17-7.39,2.08,0,4.25.37,4.25.37v4.67h-2.39c-2.36,0-3.09,1.46-3.09,2.97v3.56h5.27l-.84,5.49h-4.42v13.27c9.08-1.42,16.02-9.28,16.02-18.76Z"/>
      <path class="cls-1" d="M26.38,24.48l.84-5.49h-5.27v-3.56c0-1.5.74-2.97,3.09-2.97h2.39v-4.67s-2.17-.37-4.25-.37c-4.34,0-7.17,2.63-7.17,7.39v4.18h-4.82v5.49h4.82v13.27c.97.15,1.96.23,2.97.23s2-.08,2.97-.23v-13.27h4.42Z"/>
    </g>
  </g>
</svg>