<?xml version="1.0" encoding="UTF-8"?>
<svg id="Camada_2" data-name="Camada 2" xmlns="http://www.w3.org/2000/svg" viewBox="0 0 29.89 29.89">
  <defs>
    <style>
      .cls-1 {
        fill: none;
        stroke: #79cade;
        stroke-linecap: round;
        stroke-miterlimit: 10;
        stroke-width: 1.25px;
      }
    </style>
  </defs>
  <g id="Camada_1-2" data-name="Camada 1">
    <g>
      <path class="cls-1" d="M7.47,2.72c2.18-1.33,4.73-2.1,7.47-2.1,7.91,0,14.32,6.41,14.32,14.32s-6.41,14.32-14.32,14.32S.62,22.85.62,14.94c0-3.72,1.41-7.1,3.74-9.65"/>
      <line class="cls-1" x1="11.21" y1="11.21" x2="16.19" y2="16.19"/>
      <line class="cls-1" x1="13.08" y1="16.81" x2="20.55" y2="9.34"/>
      <path class="cls-1" d="M22.42,22.88c2.11-1.99,3.42-4.81,3.42-7.93,0-6.02-4.88-10.9-10.9-10.9S4.05,8.93,4.05,14.94s4.88,10.9,10.9,10.9c1.31,0,2.57-.23,3.74-.66"/>
    </g>
  </g>
</svg>