<?xml version="1.0" encoding="UTF-8"?>
<svg id="Camada_2" data-name="Camada 2" xmlns="http://www.w3.org/2000/svg" viewBox="0 0 40.39 40.39">
  <defs>
    <style>
      .cls-1 {
        fill: #7eccdf;
      }

      .cls-1, .cls-2 {
        stroke-width: 0px;
      }

      .cls-2 {
        fill: #fff;
      }
    </style>
  </defs>
  <g id="Camada_1-2" data-name="Camada 1">
    <g>
      <circle class="cls-1" cx="20.2" cy="20.2" r="20.2"/>
      <g>
        <path class="cls-2" d="M26.47,12.56c-.77,0-1.39.62-1.39,1.39s.62,1.39,1.39,1.39,1.39-.62,1.39-1.39-.62-1.39-1.39-1.39Z"/>
        <path class="cls-2" d="M20.29,14.34c-3.22,0-5.83,2.62-5.83,5.83s2.62,5.83,5.83,5.83,5.83-2.62,5.83-5.83-2.62-5.83-5.83-5.83ZM20.29,23.9c-2.06,0-3.74-1.68-3.74-3.74s1.68-3.74,3.74-3.74,3.74,1.68,3.74,3.74-1.68,3.74-3.74,3.74Z"/>
        <path class="cls-2" d="M24.92,32.01h-9.45c-3.92,0-7.11-3.19-7.11-7.11v-9.45c0-3.92,3.19-7.11,7.11-7.11h9.45c3.92,0,7.11,3.19,7.11,7.11v9.45c0,3.92-3.19,7.11-7.11,7.11ZM15.47,10.56c-2.69,0-4.89,2.19-4.89,4.89v9.45c0,2.69,2.19,4.89,4.89,4.89h9.45c2.69,0,4.89-2.19,4.89-4.89v-9.45c0-2.69-2.19-4.89-4.89-4.89h-9.45Z"/>
      </g>
    </g>
  </g>
</svg>