<?xml version="1.0" encoding="UTF-8"?>
<svg id="Camada_2" data-name="Camada 2" xmlns="http://www.w3.org/2000/svg" viewBox="0 0 13.7 26.15">
  <defs>
    <style>
      .cls-1 {
        fill: #78c9de;
        stroke-width: 0px;
      }
    </style>
  </defs>
  <g id="Camada_1-2" data-name="Camada 1">
    <g>
      <path class="cls-1" d="M6.82,18.59c.56-.22,1.69-.68,1.69-.68.15-.06.32-.02.43.09l4.49,4.83c.3.32.35.79.12,1.16-.02.03-.04.06-.06.09-.13.2-.27.39-.44.57-1.63,1.78-4.53,2.01-6.48.52C-1.21,19.2-2.23,8.61,4.31,1.5c1.63-1.78,4.53-2.01,6.48-.52.2.15.38.32.54.49.03.03.05.06.08.08.29.33.33.79.1,1.16l-3.51,5.46c-.08.13-.25.19-.41.16,0,0-1.2-.28-1.79-.41"/>
      <path class="cls-1" d="M4.99,9.34c-.35,1.33-.46,2.71-.33,4.06.11,1.16.4,2.31.86,3.41"/>
    </g>
  </g>
</svg>