<?xml version="1.0" encoding="UTF-8"?>
<svg id="Camada_2" data-name="Camada 2" xmlns="http://www.w3.org/2000/svg" viewBox="0 0 27.99 28.05">
  <defs>
    <style>
      .cls-1 {
        fill-rule: evenodd;
      }

      .cls-1, .cls-2 {
        fill: #78c9de;
        stroke-width: 0px;
      }
    </style>
  </defs>
  <g id="Camada_1-2" data-name="Camada 1">
    <g>
      <path class="cls-2" d="M0,28.05l2.01-7.5c-1.14-2.05-1.74-4.36-1.74-6.69C.27,6.22,6.49,0,14.13,0s13.86,6.22,13.86,13.86-6.22,13.86-13.86,13.86c-2.29,0-4.56-.58-6.59-1.68l-7.54,2.02ZM7.92,23.22l.48.28c1.74,1.04,3.73,1.59,5.74,1.59,6.2,0,11.24-5.04,11.24-11.24S20.33,2.62,14.13,2.62,2.89,7.66,2.89,13.86c0,2.05.57,4.06,1.64,5.83l.29.48-1.12,4.19,4.21-1.13Z"/>
      <path class="cls-1" d="M19.28,15.78c-.57-.34-1.31-.72-1.98-.45-.52.21-.84,1.02-1.18,1.43-.17.21-.38.24-.64.14-1.94-.77-3.42-2.06-4.49-3.84-.18-.28-.15-.49.07-.75.32-.38.73-.81.81-1.32.09-.51-.15-1.11-.36-1.57-.27-.58-.57-1.41-1.16-1.74-.54-.3-1.24-.13-1.72.26-.82.67-1.22,1.72-1.21,2.77,0,.3.04.59.11.88.17.69.48,1.33.84,1.94.27.46.56.91.88,1.34,1.03,1.41,2.32,2.63,3.81,3.54.74.46,1.55.86,2.38,1.13.93.31,1.76.63,2.77.44,1.05-.2,2.09-.85,2.51-1.87.12-.3.19-.64.12-.95-.14-.66-1.03-1.05-1.56-1.36Z"/>
    </g>
  </g>
</svg>