<?xml version="1.0" encoding="UTF-8"?>
<svg id="Camada_2" data-name="Camada 2" xmlns="http://www.w3.org/2000/svg" viewBox="0 0 190.72 145.45">
  <defs>
    <style>
      .cls-1 {
        fill: #fff;
        stroke-width: 0px;
      }
    </style>
  </defs>
  <g id="Camada_1-2" data-name="Camada 1">
    <g>
      <g>
        <g>
          <g id="g44">
            <g id="path46">
              <path class="cls-1" d="M61.27,31.35c4.43-.1,8.24-.16,10.93-.18-.47-.84-.68-1.83-.65-2.82-3.4-.06-6.83-.11-10.24-.14.31,1.06.31,2.17-.04,3.14Z"/>
              <path class="cls-1" d="M137.56,45.26c-1.42-7.86-8.24-13.84-17.03-15.12-.65-.1-6.29-.41-14.68-.76.12,1.16-.13,2.36-.69,3.36,5.17.28,10.33.57,15.49.93,6.23.43,11.24,3.47,13.44,9.54.74,2.03.73,4.49.46,6.68-2.22,17.9-4.6,35.78-6.9,53.68-1.12,8.71-6.7,13.47-16.49,12.95-17.19-1.67-35.56-2.24-53.94-1.7-10.62.31-21.23,1.06-31.84,1.75-5.95.39-10.74-1.5-13.79-6.6-1.06-1.77-1.64-3.96-1.91-6.02-2.46-18.52-4.72-37.06-7.21-55.58-.97-7.26,5.92-13.02,11.01-14.12.49-.11,1.03-.26,1.94-.46,3.24-.43,7.57-.8,12.42-1.11-.77-1.11-1.09-2.51-.96-3.82-6.49.44-11.36,1.12-13.59,2.13-.82.38-2.02.91-3.19,1.51C4.18,35.59-1.09,42.25.19,51.11c2.58,17.75,4.67,35.57,6.87,53.37,1.11,9.01,8.58,15.97,17.72,16.26.79.02,1.56,0,2.63,0-6.85,8.34-7.18,15.43-1.27,21.06,4.94,4.71,13.29,4.87,18.5.39,2.63-2.26,4.28-5.05,4.68-8.5.71-6-2.05-10.42-7.12-14.1,17.19-1.06,33.83-1.12,50.8-.14-8.28,7.76-9.65,14.9-4.33,21.27,4.47,5.35,12.92,6.33,18.69,2.17,2.82-2.03,4.68-4.72,5.41-8.1,1.24-5.78-1.15-10.31-5.75-14.45,1.56.13,2.52.23,3.47.3,10.18.73,18.88-6.02,20.17-15.83,2.34-17.85,4.57-35.72,6.8-53.58.24-1.96.43-4.03.08-5.95ZM47.58,131.9c0,6.85-5.14,10.87-11.63,11.24-6.3.03-11.48-4.96-11.56-11.12-.07-5.87,5.63-11.71,11.48-11.79,6.31-.07,11.71,5.32,11.71,11.67ZM110.35,132.08c.17,6.53-5.22,10.42-11.01,10.52-6.04.11-10.67-4.59-10.71-10.55-.02-5.76,4.96-10.98,10.51-11.01,6.35-.03,11.2,4.75,11.2,11.04Z"/>
            </g>
          </g>
          <g id="g48">
            <g id="path50">
              <path class="cls-1" d="M154.49,140.36c6,.15,10.79-4.18,11.02-9.97.24-5.87-4.61-10.94-10.66-11.02-4.35-.05-10.44,3.96-10.62,10.32-.17,5.83,4.31,10.52,10.26,10.66M156.97,54.55c-2.56,7.31-1.84,22.62,1.24,29.97,2.57,6.14,7.3,9.78,14.21,9.73,4.57-.03,9.13-1.23,13.68-1.94,1.51-.24,1.57-1.19,1.3-2.45-2.02-9.46-5.93-18.01-13.05-25.04-4.83-4.78-10.51-8.25-17.38-10.27M188.02,94.47c-2,.56-3.75,1.07-5.51,1.55-14.63,4.04-25.44-2.19-28.8-16.52-1.46-6.27-1.62-12.59-1.18-18.95.37-5.25.42-5.13-4.97-5.32-2.5-.09-3.83.9-4.3,3.05-.77,3.5-1.68,7-2,10.55-1.22,13.28-.55,26.58.5,39.85.49,5.98,2.76,8.52,8.96,8.76,9.08.35,18.19-.02,27.28.03,3.16.02,5.3-1.42,6.79-3.88,3.56-5.88,3.74-12.31,3.23-19.13M146.46,118.46c-6.17-2.57-7.58-7.78-8-13.52-.9-12.39-1.58-24.8-.2-37.19.41-3.73,1.36-7.45,2.51-11.03,1.04-3.27,3.59-4.75,7.21-4.82,20.28-.39,34.4,11.59,40.25,29.64,2.6,8.01,3.33,16.21,1.4,24.5-.41,1.73-.99,3.46-1.74,5.08-2.35,5-5.99,8.17-11.95,8.14-3.58-.01-7.17.29-11.24.47,3.4,4.27,4.85,8.64,3.33,13.6-.95,3.07-2.83,5.47-5.51,7.33-4.43,3.06-13.05,3.61-17.92-2-2.66-3.08-3.84-6.5-3.53-10.48.31-3.95,2.8-6.76,5.37-9.71"/>
            </g>
          </g>
        </g>
        <g>
          <g id="g52">
            <g id="path54">
              <path class="cls-1" d="M60.23,69.05l-1.04-1.6c-.19-.29-4.33-6.72-4.55-12.64-1.87,1.9-5.72,6-6.85,8.73l-1.06,2.55-.07-2.76c0-.23-.13-5.72,2.21-13.05,2.16-6.76,6.91-16.39,17.3-23.85l.51-.36,2.9,4.5-.14.3c-.09.18-8.71,18.37-9.15,36.29l-.05,1.91ZM55.99,51.84l-.14,1.57c-.37,4.17,1.93,9.12,3.32,11.68.93-16.21,7.96-32.07,9.04-34.43l-1.87-2.9c-9.78,7.22-14.3,16.4-16.36,22.88-1.36,4.28-1.87,7.96-2.05,10.23,2.41-3.6,6.7-7.73,6.92-7.94l1.14-1.09Z"/>
            </g>
          </g>
          <g id="g60">
            <g id="path62">
              <path class="cls-1" d="M73.87,68.91l-.12-1.91c-1.14-17.88-10.48-35.67-10.57-35.85l-.15-.29,2.72-4.62.52.34c10.68,6.99,15.81,16.4,18.23,23.06,2.62,7.22,2.72,12.72,2.72,12.95l.03,2.76-1.16-2.5c-1.24-2.67-5.25-6.61-7.19-8.42.02,5.93-3.87,12.54-4.05,12.84l-.98,1.64ZM64.37,30.89c1.18,2.32,8.82,17.84,10.39,34,1.29-2.62,3.39-7.67,2.86-11.81l-.2-1.55,1.18,1.03c.23.2,4.67,4.13,7.22,7.62-.27-2.27-.93-5.95-2.47-10.18-2.32-6.37-7.19-15.33-17.23-22.09l-1.76,2.98Z"/>
            </g>
          </g>
          <g id="g68">
            <g id="path70">
              <path class="cls-1" d="M33.94,47.4c-2.32,0-3.99-.59-4.98-1.75-2.45-2.88-2.33-5.37-2.18-8.27.14-2.85.3-6.08-1.87-11.01-3.15-7.19-3.09-15.6.15-20.46,1.98-2.97,4.97-4.51,8.65-4.44,10.43.19,29.08,17.68,29.87,18.42l.36.34.25,12.63-.24.32c-1.99,2.72-6.86,6.13-13.02,9.13-6.23,3.03-12.38,4.93-16.46,5.08-.18,0-.35,0-.53,0ZM33.47,3.84c-2.77,0-4.94,1.14-6.44,3.39-2.82,4.22-2.8,11.71.04,18.2,2.39,5.45,2.21,9.13,2.06,12.08-.13,2.68-.22,4.45,1.62,6.62.56.66,1.82.98,3.62.91,8.2-.3,23.45-8.06,27.42-12.93l-.21-10.82c-2.65-2.43-19.14-17.28-27.93-17.44-.06,0-.13,0-.19,0Z"/>
            </g>
          </g>
          <g id="g76">
            <g id="path78">
              <path class="cls-1" d="M99.89,45.94c-8.63,0-25.35-7.2-29.89-12.89l-.25-.31-.25-12.63.35-.35c.76-.78,18.7-19.07,29.11-19.73,3.66-.23,6.71,1.17,8.81,4.04,3.44,4.71,3.84,13.12.97,20.45-1.97,5.03-1.68,8.25-1.43,11.09.26,2.88.48,5.37-1.86,8.35-1.02,1.3-2.86,1.97-5.48,1.98-.03,0-.05,0-.08,0ZM72.1,31.87c4.13,4.66,19.57,11.7,27.79,11.7.02,0,.05,0,.07,0,1.83,0,3.09-.38,3.63-1.08,1.76-2.24,1.6-4.01,1.36-6.69-.26-2.95-.59-6.61,1.58-12.16,2.59-6.62,2.31-14.1-.68-18.19-1.62-2.22-3.89-3.26-6.75-3.08-8.78.55-24.68,16.12-27.22,18.67l.21,10.82Z"/>
            </g>
          </g>
          <g id="g84">
            <g id="path86">
              <path class="cls-1" d="M71.69,34.46l-9.17.2c-1.37.03-2.52-1.14-2.55-2.6l-.19-9.73c-.03-1.46,1.07-2.68,2.45-2.71l9.17-.2c1.37-.03,2.52,1.14,2.55,2.6l.19,9.73c.03,1.46-1.07,2.68-2.45,2.71"/>
              <path class="cls-1" d="M62.47,34.9c-.68,0-1.33-.27-1.84-.75-.56-.53-.88-1.29-.9-2.08l-.19-9.73c-.03-1.59,1.17-2.91,2.68-2.95l9.17-.2c.7-.02,1.37.25,1.89.75.56.53.88,1.29.9,2.08l.19,9.73c.03,1.59-1.17,2.91-2.68,2.95l-9.17.2s-.04,0-.06,0ZM71.45,19.66s-.03,0-.05,0l-9.17.2c-1.25.03-2.24,1.13-2.21,2.47l.19,9.73c.01.66.29,1.3.75,1.74.43.41.98.63,1.56.62l9.17-.2c1.25-.03,2.24-1.13,2.21-2.46l-.19-9.73c-.01-.66-.29-1.3-.75-1.74-.42-.4-.95-.62-1.51-.62Z"/>
            </g>
          </g>
        </g>
      </g>
      <g>
        <g>
          <g>
            <path class="cls-1" d="M62.71,82.42c-.12.05-.28.07-.35.16-.65.94-1.49,1.69-2.36,2.4-.16.13-.35.23-.61.4.05-.22.07-.33.1-.44.45-1.72.91-3.44,1.35-5.17.12-.49.23-.99.26-1.5.03-.55-.38-.95-.95-1.08-.49-.11-.97.11-1.21.58-.09.18-.16.38-.21.58-.27,1.16-.52,2.32-.79,3.47-.21.86-.67,1.58-1.32,2.18-.39.36-.85.56-1.38.56-.57,0-.79-.27-.7-.83.14-.93.56-1.75,1-2.56.4-.75.82-1.49,1.21-2.24.31-.6.23-1.14-.21-1.53-.66-.59-1.46-.48-1.99.3-.74,1.09-1.31,2.27-1.64,3.55-.3,1.15-.69,2.24-1.34,3.24-.39.61-.83,1.17-1.47,1.53-.59.32-1.11.17-1.45-.42-.08-.15-.15-.31-.2-.47-.31-.96-.3-1.96-.28-2.95,0-.42.14-.86.32-1.25.72-1.65,1.49-3.29,2.23-4.93.11-.25.27-.39.55-.39,2.36-.05,4.72-.11,7.09-.16.25,0,.49-.03.5-.34,0-.3-.24-.33-.46-.33-1.42-.03-2.83-.06-4.25-.1-.79-.02-1.58-.04-2.36-.07-.18,0-.39.01-.4-.26,0-.13.03-.26.09-.36.21-.58.76-2.07.77-2.09.05-.16.09-.31.14-.47.11-.41.18-.83.21-1.25.04-.85-.15-1.12-.92-1.43,0,0-1.03-.28-1.43-.18s-1.29,2.09-1.29,2.09h0s-.01.03-.01.03h0s0,0,0,0c-.01.03-.03.06-.05.09-.47,1.02-.95,2.04-1.4,3.07-.23.52-.23.56-.79.55-1.66-.04-3.32-.09-4.98-.13-.46-.01-.92-.03-1.38-.03-.52,0-.91.38-.92.84-.01.46.32.8.85.86.13.02.27.02.4.01,1.87-.06,3.73-.12,5.6-.18.51-.02.61.1.5.6-.44,1.95-.67,3.92-.68,5.91,0,.28-.07.59-.2.83-.37.64-.74,1.28-1.2,1.86-.39.5-.86.95-1.36,1.34-.47.36-.85.15-.88-.44-.05-.9.04-1.79.32-2.65.31-.94.83-1.74,1.51-2.45.62-.64.54-1.53-.18-1.87-.27-.13-.64-.14-.94-.08-1,.2-1.97.49-2.97.68-.73.14-.81.05-.8-.71.01-.78-.43-1.31-1.18-1.41-1.26-.18-2.21,1.07-1.8,2.33.2.61.64,1.01,1.15,1.36.39.27.46.47.23.86-.69,1.13-1.38,2.25-2.12,3.34-.23.34-.59.61-.93.85-.41.28-.81.06-.86-.43-.03-.31-.04-.64.03-.94.19-.79.39-1.57.66-2.34.33-.96.26-1.29-.55-1.9-.04-.03-.07-.09-.13-.16.19-.09.35-.16.51-.24.69-.37.85-1.1.37-1.72-.75-.98-2.17-1.46-3.36-1.12-.96.27-1.62.93-2.2,1.7-1.08,1.45-1.56,3.13-1.81,4.89-.11.78-.09,1.55.16,2.3.47,1.45,1.98,1.81,3.03.7.37-.39.63-.88.94-1.33.07-.1.13-.21.19-.32.13.16.18.3.21.45.16.82.47,1.53,1.31,1.88,1,.41,1.95.19,2.66-.64.83-.98,1.32-2.14,1.76-3.32.21-.56.45-1.1.69-1.64.11-.24.32-.33.6-.3.63.07,1.27.13,1.9.16.31.02.42.13.38.43-.04.26-.09.53-.12.79-.15,1.17-.1,2.32.34,3.44.39,1,1.34,1.28,2.21.64.12-.09.22-.19.32-.29.81-.77,1.33-1.75,1.91-2.69.06-.09.17-.14.26-.22.06.1.13.19.17.29.23.66.42,1.34.7,1.97.27.6.75,1.04,1.36,1.3,1.09.47,2.3.14,3.14-.91.36-.45.64-.97.95-1.46.19-.31.29-.32.47,0,.22.38.52.65.94.75,1.07.24,2.05.07,2.88-.68.09-.08.19-.13.29-.2-.09.64-.26,1.22-.41,1.8-.1.39-.34.63-.69.84-.96.56-1.93,1.12-2.86,1.73-.93.62-1.71,1.4-2.06,2.51-.4,1.25.28,2.48,1.56,2.78.92.22,1.81.07,2.54-.54.44-.37.82-.83,1.14-1.31,1.03-1.58,1.74-3.32,2.36-5.1.11-.31.3-.61.52-.85.38-.39.82-.72,1.23-1.08.91-.81,1.7-1.73,2.31-2.79.02-.04.07-.08.07-.12,0-.14,0-.28,0-.42ZM49.54,73.94l1.38-3.67c.11-.3.44-.45.74-.34h.02c.3.12.45.45.34.75l-1.38,3.67c-.11.3-.44.45-.74.34h-.02c-.3-.12-.45-.45-.34-.75ZM32.16,81.88c-.39,1.41-.98,2.73-1.96,3.85-.13.15-.28.3-.45.42-.45.31-.86.14-.92-.39-.05-.39-.07-.8-.01-1.19.23-1.61.79-3.09,1.86-4.35.06-.07.13-.15.19-.22.8-.84,1.13-.86,2.01-.12.19.16.39.31.65.53-.92.13-1.18.77-1.37,1.47ZM38.73,79.27s-.25.1-.31.05c-.26-.18-.55-.35-.74-.6-.19-.26,0-.53.39-.65.01,0,.03-.01.04-.01.03-.01.07-.02.1-.02.01,0,.03,0,.04,0,0,0,0,0,0,0,.02,0,.03,0,.05,0,.07,0,.15.02.21.06.01,0,.02,0,.04.02.07.03.14.11.18.17.03.05.05.11.06.16.01.07.02.14,0,.21,0,.2-.04.41-.06.61ZM54.69,91.55c-.17.33-.39.65-.65.91-.2.2-.5.35-.77.4-.48.09-.77-.31-.57-.75.14-.3.34-.58.56-.84.61-.74,1.41-1.25,2.22-1.74.04.02.08.05.12.07-.3.65-.57,1.31-.89,1.95Z"/>
            <path class="cls-1" d="M27.68,94.98c-.08.05-.22.01-.34.01,0-.1,0-.21.03-.3.25-.75.43-1.52.4-2.32-.03-.88-.44-1.33-1.3-1.47-.18-.03-.37-.07-.51-.17-.32-.21-.65-.24-1.01-.16-.89.21-1.51.79-1.93,1.54-.39.7-.67,1.47-.96,2.23-.34.87-.75,1.68-1.49,2.29-.52.43-1.01.31-1.28-.31-.09-.21-.16-.44-.19-.66-.09-.76-.25-1.52.08-2.26.48-1.1,1-2.18,1.49-3.28.15-.33.38-.48.73-.49.48,0,.97-.03,1.45-.05.97-.04,1.94-.07,2.91-.12.17,0,.34-.1.51-.16-.16-.06-.32-.15-.49-.19-.19-.04-.39-.03-.58-.04-1.17-.05-2.35-.1-3.52-.15-.4-.02-.47-.12-.36-.5.09-.3.22-.59.3-.89.15-.52.32-1.05.4-1.58.12-.75-.51-1.21-1.2-.89-.24.11-.46.27-.65.45-.78.72-1.2,1.66-1.54,2.64-.21.6-.39.72-1.02.69-1.24-.05-2.47-.1-3.71-.15-.16,0-.35-.03-.46.04-.18.13-.39.32-.43.51-.06.27.15.48.43.54.25.05.5.06.76.05,1.1-.02,2.21-.06,3.31-.08.55-.01.59.02.47.55-.31,1.47-.42,2.95-.36,4.44.03.82.23,1.58.67,2.28.29.46.69.79,1.24.86.74.09,1.32-.24,1.79-.78.2-.22.36-.47.58-.77.08.15.12.22.15.29.55,1.29,1.61,1.71,2.9,1.14.66-.29,1.11-.8,1.52-1.37.12-.17.3-.37.48-.4.91-.19,1.53-.76,2.03-1.48.07-.1.07-.25.1-.37-.13.03-.27.04-.37.1-.35.23-.69.49-1.04.72ZM20.06,88.47c.31-.83.64-1.66.99-2.48.04-.11.21-.16.32-.24.07.12.15.24.27.43-.32.85-.63,1.71-.97,2.56-.09.23-.34.27-.52.15-.09-.06-.13-.3-.09-.42ZM25.67,96.23c-.37.26-.76.53-1.18.67-.64.22-1.05-.08-1.16-.75-.02-.12-.03-.24-.04-.34.05-.8.32-1.5.72-2.16.04-.06.13-.09.19-.14.05.07.13.14.14.22.13.85.59,1.46,1.28,1.93.29.2.32.37.04.57ZM26.69,94.66c-.09.29-.25.29-.43.04-.43-.58-.48-1.91-.1-2.51.22-.35.59-.35.75.03.1.25.12.54.19.91-.12.46-.25,1-.42,1.53Z"/>
            <path class="cls-1" d="M16.84,87.14c.72-.42,1.29-1.02,1.65-1.76.51-1.04,1.04-2.1,1.35-3.2.58-2.14,1.01-4.31,1.49-6.47.31-1.36.81-2.59,2.01-3.43.08-.05.18-.2.15-.25-.04-.09-.16-.18-.27-.2-.16-.04-.35-.07-.5-.02-.49.17-1,.31-1.44.58-.93.55-1.46,1.46-1.9,2.42-.74,1.6-1.02,3.33-1.39,5.03-.33,1.53-.64,3.06-1.25,4.51-.23.54-.52,1.04-1,1.4-.76.57-1.76.23-1.97-.69-.08-.34-.02-.72-.04-1.08,0-.12-.05-.24-.08-.35-.11.06-.25.11-.32.2-.31.41-.44.88-.51,1.41.1.33.16.69.31.99.63,1.26,2.38,1.69,3.7.91Z"/>
            <polygon class="cls-1" points="48.9 70.69 48.9 70.7 48.9 70.7 48.9 70.69"/>
            <path class="cls-1" d="M27.87,72.48c-.25-.26-.53-.49-.81-.68.09.07.45.33.81.68Z"/>
          </g>
          <g>
            <path class="cls-1" d="M25.68,73c-.27-.3-.58-.53-.92-.7.33.19.67.42.92.7Z"/>
            <path class="cls-1" d="M28.95,74.01c-.11-.25-.25-.48-.39-.72h0c-.16-.26-.39-.51-.61-.73-.01-.01-.02-.02-.04-.03-.01-.01-.03-.03-.04-.04-.37-.35-.72-.62-.81-.68-.01,0-.03-.02-.04-.03-1.93-1.17-3.88-1.31-3.88-1.31h0s-.09,0-.13,0c-2.16-.16-4.29.07-6.33.82-1.74.63-3.05,1.8-3.8,3.5-1.09,2.47.26,5.41,3.03,6.53.57.23,1.11-.12,1.24-.72.09-.43-.17-.82-.65-1.06-.5-.25-1.02-.48-1.45-.8-1.45-1.09-1.94-2.8-1.25-4.4.42-.98,1.22-1.67,2.16-2.13,2.36-1.14,4.82-1.27,7.33-.54.05.01.09.03.14.05h0s.67.2,1.35.59c.35.17.66.4.92.7.02.02.04.05.07.07.12.08.24.18.34.27.17.15.3.34.37.55.08.11.13.24.24.53,0,0,0,0,0,0,.71,1.98-.07,4.28-1.93,5.46-.99.63-2.09.94-3.24,1.13-.15.02-.27.19-.4.29.13.09.26.25.4.27,1.86.21,3.63-.08,5.25-1.05,2.4-1.43,3.26-4.07,2.16-6.52Z"/>
          </g>
        </g>
        <g>
          <g id="g140">
            <g id="path142">
              <path class="cls-1" d="M42.43,96.15h0c-.22,0-.44,0-.65,0-.27,0-.38.14-.27.4.34.81.84,1.5,1.66,1.83,1.45.57,2.77.21,3.57-1.56.7-1.54.68-3.09-.1-4.6-.48-.92-1.26-1.37-2.32-1.4-1.71-.04-2.91,1.65-3.02,3.1-.02.27.11.34.32.34.48,0,.97,0,1.45,0,.26,0,.41-.1.41-.38,0-.37.18-.38.45-.22.8.46,1.6.92,2.4,1.38.3.17.12.3-.05.4-.81.47-1.63.93-2.44,1.4-.24.14-.36.09-.35-.19.02-.41-.19-.53-.55-.5-.17.01-.34,0-.51,0M38.89,94.61c-.04-1.79.55-3.35,1.69-4.72,1.61-1.94,4.92-2.25,6.87-.66,1.41,1.14,1.98,2.7,2.21,4.43.14,1.06.05,2.1-.2,3.14-.31,1.32-.94,2.43-1.97,3.3-1.1.92-2.38,1.19-3.77,1.03-2.42-.27-4.34-2.42-4.68-4.69-.09-.61-.17-1.21-.15-1.83"/>
            </g>
          </g>
          <g id="g144">
            <g id="path146">
              <path class="cls-1" d="M36.08,93.51c.62,0,1.25,0,1.87,0,.25,0,.47.02.48.36.06,1.63.01,3.24-.62,4.78-.75,1.83-2.55,2.76-4.45,2.32-2.23-.51-3.23-2.12-3.73-4.2-.3-1.25-.31-2.53-.15-3.76.25-1.86,1.07-3.47,2.76-4.44.99-.57,2.06-.7,3.2-.44,1.04.24,1.89.7,2.44,1.64.2.33.16.53-.21.7-.44.19-.86.43-1.29.66-.23.12-.46.14-.65-.06-.94-1-2.63-.52-3.27.63-.92,1.66-1.06,3.42-.38,5.19.36.94.97,1.7,2.11,1.72.69.01,1.42-.57,1.64-1.31.08-.27.11-.56.15-.84.06-.42-.16-.57-.55-.55-.39.02-.78.02-1.17.03-.37.02-.54-.14-.53-.53.01-.46.01-.91-.07-1.37-.06-.37.09-.56.49-.55.64.01,1.28,0,1.92,0"/>
            </g>
          </g>
        </g>
        <g>
          <path class="cls-1" d="M16.33,108.34s-.07-.01-.11-.03c-.03-.02-.05-.06-.05-.1v-3.51s.02-.08.05-.1c.03-.02.07-.03.12-.03.04,0,.08,0,.12.03.04.02.05.05.05.1v3.33h1.47s.07.02.09.05c.02.03.03.07.03.11,0,.04,0,.08-.03.11-.02.03-.05.05-.09.05h-1.65Z"/>
          <path class="cls-1" d="M22.09,108.37c-.15,0-.29-.02-.42-.06-.13-.04-.24-.1-.34-.19-.1-.09-.17-.2-.23-.34s-.08-.31-.08-.51v-1.6c0-.2.03-.37.08-.51s.13-.25.23-.34c.1-.09.21-.15.34-.19.13-.04.27-.06.42-.06s.29.02.42.06c.13.04.24.1.34.19.1.09.17.2.23.34.05.14.08.31.08.51v1.6c0,.2-.03.37-.08.51-.05.14-.13.25-.23.34-.1.09-.21.15-.34.19-.13.04-.27.06-.42.06ZM22.82,105.67c0-.27-.06-.47-.19-.59-.13-.13-.31-.19-.54-.19s-.41.06-.54.19c-.13.13-.19.32-.19.59v1.6c0,.27.06.47.19.6.13.13.31.19.54.19s.41-.06.54-.19c.13-.13.19-.33.19-.6v-1.6Z"/>
          <path class="cls-1" d="M28.24,105.51c0-.05-.01-.12-.03-.19-.02-.07-.05-.14-.1-.2-.05-.06-.12-.12-.22-.16-.09-.04-.22-.07-.37-.07-.24,0-.42.06-.55.19s-.19.32-.19.59v1.6c0,.27.06.47.19.6.13.13.32.19.57.19.15,0,.28-.02.37-.06.09-.04.16-.1.2-.16.05-.06.08-.13.1-.21.02-.07.03-.14.04-.2.01-.09.07-.13.17-.13.06,0,.1.01.13.04.03.03.04.08.04.17,0,.12-.02.23-.07.33-.05.1-.12.2-.21.28-.09.08-.21.14-.34.19s-.29.07-.45.07c-.14,0-.28-.02-.41-.06-.13-.04-.24-.1-.34-.19-.1-.09-.17-.2-.23-.34-.06-.14-.09-.31-.09-.51v-1.6c0-.2.03-.37.09-.51.06-.14.14-.25.23-.34.1-.09.21-.15.34-.19.13-.04.27-.06.42-.06.17,0,.32.02.45.07.13.05.24.11.33.19.09.08.16.17.21.27.05.1.07.21.07.33,0,.09-.01.14-.04.17-.03.03-.07.04-.13.04s-.1-.01-.13-.04-.04-.05-.04-.09Z"/>
          <path class="cls-1" d="M31.67,108.34s-.09-.01-.13-.04-.06-.06-.06-.11c0-.02,0-.03,0-.04l1.08-3.5s.04-.07.08-.09.08-.03.12-.03c.05,0,.09.01.13.03.04.02.06.05.08.09l1.07,3.5s0,.01,0,.02c0,0,0,0,0,.02,0,.04-.02.08-.07.11-.04.03-.09.04-.14.04-.07,0-.11-.03-.13-.09l-.24-.79h-1.43l-.24.79s-.02.05-.05.07c-.03.01-.05.02-.09.02ZM33.38,107.16l-.62-2.08-.63,2.08h1.25Z"/>
          <path class="cls-1" d="M38.88,105.51c0-.05-.01-.12-.03-.19-.02-.07-.05-.14-.1-.2-.05-.06-.12-.12-.22-.16-.09-.04-.22-.07-.37-.07-.24,0-.42.06-.55.19s-.19.32-.19.59v1.6c0,.27.06.47.19.6.13.13.32.19.57.19.15,0,.28-.02.37-.06.09-.04.16-.1.2-.16.05-.06.08-.13.1-.21.02-.07.03-.14.04-.2.01-.09.07-.13.17-.13.06,0,.1.01.13.04.03.03.04.08.04.17,0,.11-.02.21-.06.31s-.1.18-.17.26-.17.14-.28.19c-.11.05-.24.08-.38.1l-.08.3c.18,0,.3.04.38.11.08.07.12.16.12.25,0,.05,0,.1-.03.14-.02.05-.05.09-.09.13-.04.04-.09.07-.14.09s-.12.04-.2.04c-.03,0-.07,0-.12,0-.05,0-.09-.01-.13-.02s-.08-.02-.11-.04c-.03-.02-.04-.04-.04-.06,0-.02,0-.04.02-.07.01-.03.03-.05.06-.05.02,0,.05.01.1.04s.11.04.19.04c.1,0,.17-.02.21-.06.04-.04.06-.09.06-.14,0-.07-.03-.12-.09-.16s-.14-.05-.24-.05l-.2-.02.11-.44c-.14,0-.28-.02-.4-.06-.13-.04-.24-.1-.33-.19-.1-.09-.17-.2-.23-.34-.05-.14-.08-.31-.08-.51v-1.6c0-.2.03-.37.09-.51.06-.14.14-.25.23-.34.1-.09.21-.15.34-.19.13-.04.27-.06.42-.06.17,0,.32.02.45.07.13.05.24.11.33.19.09.08.16.17.21.27.05.1.07.21.07.33,0,.09-.01.14-.04.17-.03.03-.07.04-.13.04s-.1-.01-.13-.04-.04-.05-.04-.09Z"/>
          <path class="cls-1" d="M43.42,108.37c-.15,0-.29-.02-.42-.06-.13-.04-.24-.1-.34-.19-.1-.09-.17-.2-.23-.34s-.08-.31-.08-.51v-1.6c0-.2.03-.37.08-.51s.13-.25.23-.34c.1-.09.21-.15.34-.19.13-.04.27-.06.42-.06s.29.02.42.06c.13.04.24.1.34.19.1.09.17.2.23.34.05.14.08.31.08.51v1.6c0,.2-.03.37-.08.51-.05.14-.13.25-.23.34-.1.09-.21.15-.34.19-.13.04-.27.06-.42.06ZM43.1,103.71c-.05,0-.1,0-.14.03-.04.02-.07.04-.1.06-.03.02-.05.04-.07.06-.02.02-.04.03-.06.03-.03,0-.06-.01-.07-.04-.02-.03-.02-.06-.02-.09,0-.05.02-.09.05-.13.03-.04.07-.07.12-.09.05-.03.1-.04.15-.06.05-.01.1-.02.14-.02.07,0,.13,0,.18.03.05.02.11.04.16.06.05.02.1.04.16.06.05.02.11.03.18.03.06,0,.11,0,.14-.02.04-.02.07-.03.09-.05.02-.02.05-.04.06-.05s.04-.02.06-.02c.03,0,.06.01.08.04.02.03.03.05.03.08,0,.05-.02.1-.05.13-.03.04-.07.07-.11.09-.04.02-.09.04-.14.05-.05.01-.09.02-.13.02-.07,0-.13,0-.19-.03-.05-.02-.11-.04-.16-.06s-.1-.04-.16-.06c-.05-.02-.12-.03-.19-.03ZM44.15,105.67c0-.27-.06-.47-.19-.59-.13-.13-.31-.19-.54-.19s-.41.06-.54.19c-.13.13-.19.32-.19.59v1.6c0,.27.06.47.19.6.13.13.31.19.54.19s.41-.06.54-.19c.13-.13.19-.33.19-.6v-1.6Z"/>
          <path class="cls-1" d="M48.15,106.3h.81s.07.02.1.05c.02.03.03.07.03.11,0,.03,0,.07-.03.1-.02.03-.05.04-.1.04h-.81v1.43h1.65s.07.02.1.05c.02.03.03.07.03.11,0,.04,0,.07-.03.11-.02.03-.05.05-.1.05h-1.83s-.07-.01-.11-.03c-.03-.02-.05-.06-.05-.1v-3.51s.02-.08.05-.1.07-.03.11-.03h1.83s.08.02.1.05c.02.03.03.07.03.1,0,.04-.01.08-.03.12-.02.03-.05.05-.1.05h-1.65v1.42Z"/>
          <path class="cls-1" d="M53.84,108.05c.24,0,.43-.06.56-.18.14-.12.2-.3.2-.53,0-.19-.04-.34-.13-.45-.08-.11-.19-.2-.32-.26s-.26-.12-.41-.17-.29-.11-.41-.18-.23-.17-.32-.29c-.08-.12-.13-.29-.13-.49,0-.19.03-.34.1-.46s.16-.22.26-.29.22-.12.35-.15c.13-.03.25-.04.37-.04.1,0,.2,0,.3.02.1.02.2.04.28.06.08.03.15.06.21.1.05.04.08.08.08.13,0,.03-.01.07-.04.12-.03.05-.06.07-.11.07-.02,0-.05-.01-.09-.03-.04-.02-.08-.04-.14-.07s-.12-.05-.2-.07-.18-.03-.29-.03c-.1,0-.19,0-.28.03-.09.02-.17.05-.24.1-.07.05-.13.11-.17.19-.04.08-.06.17-.06.29,0,.16.04.28.13.37.08.09.19.16.32.22.13.06.26.11.41.16.15.05.29.11.41.2.13.08.23.2.32.34.08.14.13.33.13.56,0,.18-.03.34-.08.47-.05.13-.13.24-.22.33-.1.09-.21.15-.35.19s-.28.06-.44.06-.31-.02-.44-.06c-.13-.04-.24-.09-.33-.15s-.16-.12-.21-.18c-.05-.06-.07-.12-.07-.17,0-.04.02-.08.05-.13.03-.04.07-.06.11-.06.03,0,.07.02.1.07.03.04.08.09.14.15.06.05.14.1.24.15.1.04.23.07.39.07Z"/>
        </g>
      </g>
      <path class="cls-1" d="M93.94,108.34c-11.81,0-21.41-9.6-21.41-21.41s9.6-21.41,21.41-21.41,21.41,9.6,21.41,21.41-9.6,21.41-21.41,21.41ZM93.94,66.28c-11.38,0-20.65,9.26-20.65,20.65s9.26,20.65,20.65,20.65,20.64-9.26,20.64-20.65-9.26-20.65-20.64-20.65Z"/>
      <path class="cls-1" d="M81.57,90.1h1.37v1.26h-4.36v-1.26h1.42v-10.13h-1.42v-1.27h4.08l3.23,8.93,3.32-8.93h3.84v1.27h-1.42v10.13h1.42v1.26h-4.36v-1.26h1.37v-9.79l-3.75,9.86h-.99l-3.75-9.86v9.79Z"/>
      <path class="cls-1" d="M106.41,84.15v-4.18h-1.37v-1.27h4.44v1.27h-1.39v10.13h1.39v1.26h-4.44v-1.26h1.37v-4.52h-5.71v4.52h1.38v1.26h-4.43v-1.26h1.37v-10.13h-1.37v-1.27h4.43v1.27h-1.38v4.18h5.71Z"/>
      <g>
        <path class="cls-1" d="M85.23,99.46v-.24h.26v-1.93h-.26v-.24h.89c.43,0,.77.11,1,.32s.35.51.35.89-.12.68-.35.89-.57.32-1,.32h-.89ZM85.81,97.28v1.93h.3c.33,0,.59-.08.77-.25s.27-.41.27-.72-.09-.55-.27-.72-.44-.25-.77-.25h-.3Z"/>
        <path class="cls-1" d="M88.38,99.46v-.24h.26v-1.93h-.26v-.24h1.87v.66h-.28v-.41h-1v.77h.84v.27h-.84v.9h1v-.47h.28v.71h-1.87Z"/>
        <path class="cls-1" d="M93.42,98.69c-.06.26-.19.45-.37.6s-.41.21-.68.21c-.36,0-.65-.12-.88-.35-.23-.24-.35-.54-.35-.9s.11-.66.34-.9c.23-.24.52-.36.86-.36.15,0,.29.02.42.07.13.05.23.11.31.2v-.23h.26v.75h-.25c-.05-.17-.14-.3-.26-.39-.12-.09-.27-.13-.46-.13-.27,0-.49.09-.65.27s-.24.41-.24.71.08.52.25.7c.17.18.39.27.66.27.18,0,.33-.04.45-.13.12-.09.22-.22.29-.4h.3Z"/>
        <path class="cls-1" d="M94.39,98.25c0-.36.12-.65.36-.89.24-.24.53-.36.89-.36.14,0,.27.02.39.06s.24.1.34.17c.16.12.29.27.38.44s.13.37.13.58c0,.35-.12.65-.36.89-.24.24-.54.36-.89.36s-.65-.12-.89-.36c-.24-.24-.36-.54-.36-.89ZM94.71,98.25c0,.28.09.51.26.7.18.18.39.28.66.28s.48-.09.66-.28c.18-.18.26-.42.26-.7s-.09-.52-.26-.7c-.18-.18-.4-.27-.66-.27s-.48.09-.66.27-.26.42-.26.7Z"/>
        <path class="cls-1" d="M98.36,99.21h.26v.24h-.85v-.24h.26v-1.93h-.26v-.24h1.03c.28,0,.48.05.61.15s.2.25.2.46c0,.13-.03.24-.1.33-.07.09-.17.17-.32.23.12.04.2.09.25.16.04.07.07.2.07.38v.47h.27v.24h-.58v-.67c0-.19-.03-.32-.1-.38-.07-.06-.19-.09-.36-.09h-.39v.9ZM98.36,97.28v.79h.35c.21,0,.36-.03.45-.1.09-.06.14-.16.14-.3s-.04-.24-.13-.31c-.09-.06-.24-.09-.46-.09h-.35Z"/>
        <path class="cls-1" d="M101.34,99.21v.24h-.82v-.24h.23l.69-1.93h-.29v-.24h1.1v.24h-.3l.66,1.93h.23v.24h-.86v-.24h.29l-.19-.57h-.83l-.19.57h.29ZM101.31,98.4h.69l-.29-.84s0-.01,0-.02c-.02-.07-.04-.14-.05-.19,0,.03-.01.07-.02.1,0,.03-.02.07-.04.12l-.29.84Z"/>
      </g>
      <path class="cls-1" d="M93.94,110.84c-13.19,0-23.91-10.73-23.91-23.91s10.73-23.91,23.91-23.91,23.91,10.73,23.91,23.91-10.73,23.91-23.91,23.91ZM93.94,63.4c-12.97,0-23.53,10.56-23.53,23.53s10.56,23.53,23.53,23.53,23.53-10.56,23.53-23.53-10.56-23.53-23.53-23.53Z"/>
    </g>
  </g>
</svg>